<svg xmlns="http://www.w3.org/2000/svg" width="160" height="152" viewBox="0 0 160 152"><ellipse cx="80" cy="139" rx="57" ry="7" fill="#283d35" opacity=".12"/><g stroke="#394a49" stroke-width="3" stroke-linecap="round" stroke-linejoin="round"><ellipse cx="45" cy="132" rx="10" ry="10" fill="#87634f"/><ellipse cx="116" cy="132" rx="10" ry="10" fill="#87634f"/><rect x="25" y="83" width="110" height="38" rx="6" fill="#666aaf"/><rect x="21" y="78" width="118" height="12" rx="6" fill="#ead598"/><path d="M45 82V40" fill="none"/><ellipse cx="45" cy="41" rx="17" ry="13" fill="#ead598"/><ellipse cx="45" cy="41" rx="5" ry="5" fill="#666aaf"/><path d="M80 82V48" fill="none"/><ellipse cx="80" cy="49" rx="17" ry="13" fill="#ead598"/><ellipse cx="80" cy="49" rx="5" ry="5" fill="#666aaf"/><path d="M112 82V56" fill="none"/><ellipse cx="112" cy="57" rx="17" ry="13" fill="#ead598"/><ellipse cx="112" cy="57" rx="5" ry="5" fill="#666aaf"/><g transform="translate(80 103) scale(0.7)" fill="#ead598" stroke="#ead598" stroke-width="2"><path d="m0-16 5 11 12 1-9 8 3 12-11-6-11 6 3-12-9-8 12-1Z"/></g></g></svg>