<svg xmlns="http://www.w3.org/2000/svg" width="160" height="152" viewBox="0 0 160 152"><ellipse cx="80" cy="139" rx="57" ry="7" fill="#283d35" opacity=".12"/><g stroke="#394a49" stroke-width="3" stroke-linecap="round" stroke-linejoin="round"><ellipse cx="45" cy="132" rx="10" ry="10" fill="#87634f"/><ellipse cx="116" cy="132" rx="10" ry="10" fill="#87634f"/><rect x="25" y="83" width="110" height="38" rx="6" fill="#5d9fba"/><rect x="21" y="78" width="118" height="12" rx="6" fill="#dbf0ef"/><path d="M45 82V40" fill="none"/><ellipse cx="45" cy="41" rx="17" ry="13" fill="#dbf0ef"/><ellipse cx="45" cy="41" rx="5" ry="5" fill="#5d9fba"/><path d="M80 82V48" fill="none"/><ellipse cx="80" cy="49" rx="17" ry="13" fill="#dbf0ef"/><ellipse cx="80" cy="49" rx="5" ry="5" fill="#5d9fba"/><path d="M112 82V56" fill="none"/><ellipse cx="112" cy="57" rx="17" ry="13" fill="#dbf0ef"/><ellipse cx="112" cy="57" rx="5" ry="5" fill="#5d9fba"/><g transform="translate(80 103) scale(0.7)" fill="#dbf0ef" stroke="#dbf0ef" stroke-width="2"><path d="M-17 0Q-9-13 0 0T17 0M-17 8Q-9-5 0 8T17 8" fill="none"/></g></g></svg>